Coordinates
version=1
nRows=17
nColumns=40
inDegrees=yes

Units are S.I. units (second, meters, Newtons, ...)
If the header above contains a line with 'inDegrees', this indicates whether rotational values are in degrees (yes) or radians (no).

endheader
time	pelvis_tilt	pelvis_list	pelvis_rotation	pelvis_tx	pelvis_ty	pelvis_tz	hip_flexion_r	hip_adduction_r	hip_rotation_r	knee_angle_r	knee_angle_r_beta	ankle_angle_r	subtalar_angle_r	mtp_angle_r	hip_flexion_l	hip_adduction_l	hip_rotation_l	knee_angle_l	knee_angle_l_beta	ankle_angle_l	subtalar_angle_l	mtp_angle_l	lumbar_extension	lumbar_bending	lumbar_rotation	arm_flex_r	arm_add_r	arm_rot_r	elbow_flex_r	pro_sup_r	wrist_flex_r	wrist_dev_r	arm_flex_l	arm_add_l	arm_rot_l	elbow_flex_l	pro_sup_l	wrist_flex_l	wrist_dev_l
      6.00000000	     83.30108283	     46.04253797	     88.07176527	      0.41892956	      0.62334503	      0.70712480	     94.07667829	     -5.33441076	      2.06341612	     52.40024498	      0.91455680	      6.52565941	      0.00000000	      0.00000000	     90.85064224	    -23.70867911	     -8.67888340	     54.08166909	      0.94390319	      9.03333826	      0.00000000	      0.00000000	    -51.13617491	    -14.98201229	    -12.03531905	     79.61156917	      7.16795569	     23.17943089	      9.75016279	     34.89638111	      0.00000000	      0.00000000	    -85.61873057	   -119.79331641	    -88.40569007	     71.09916407	     26.17679329	      0.00000000	      0.00000000
      6.00500000	     83.30964416	     46.26977325	     88.14664298	      0.41916406	      0.62329504	      0.70574130	     94.16885101	     -5.40823231	      2.13288648	     52.90993057	      0.92345250	      6.76541466	      0.00000000	      0.00000000	     90.93689576	    -23.69666045	     -8.56257370	     54.52705393	      0.95167662	      9.22002159	      0.00000000	      0.00000000	    -51.10972280	    -14.90823500	    -12.03227294	     79.58240775	      7.24850181	     23.12489227	      9.35337791	     36.47665288	      0.00000000	      0.00000000	    -85.74057417	   -119.79455877	    -88.34319094	     70.78700415	     30.36890377	      0.00000000	      0.00000000
      6.01000000	     83.27455550	     46.45638037	     88.12176141	      0.41942843	      0.62351481	      0.70438868	     94.27142564	     -5.31026160	      2.27234424	     53.34427129	      0.93103317	      6.93936801	      0.00000000	      0.00000000	     91.03700363	    -23.82084647	     -8.46409898	     54.95843307	      0.95920561	      9.38360893	      0.00000000	      0.00000000	    -51.02293683	    -14.97742846	    -11.96150884	     79.31937589	      7.23704941	     23.37164401	      9.85081482	     31.29528321	      0.00000000	      0.00000000	    -85.97148115	   -119.79507358	    -88.33071584	     71.28520042	     22.98026816	      0.00000000	      0.00000000
      6.01500000	     83.25909211	     46.67404093	     88.15614870	      0.41969053	      0.62352888	      0.70307545	     94.34266421	     -5.30198484	      2.37960525	     53.77695732	      0.93858497	      7.15024069	      0.00000000	      0.00000000	     91.12161643	    -23.87395600	     -8.37002598	     55.40084675	      0.96692718	      9.53372952	      0.00000000	      0.00000000	    -50.99153924	    -14.96370942	    -11.92470172	     79.15329384	      7.22057670	     23.48111788	      9.93820960	     30.50267863	      0.00000000	      0.00000000	    -86.14481191	   -119.79498518	    -88.31354648	     71.26538503	     23.37669531	      0.00000000	      0.00000000
      6.02000000	     83.21219639	     46.88149930	     88.18608877	      0.41985234	      0.62361942	      0.70173902	     94.43923217	     -5.28022404	      2.48561359	     54.24299810	      0.94671891	      7.34031998	      0.00000000	      0.00000000	     91.19835988	    -23.99214450	     -8.37920412	     55.85789270	      0.97490414	      9.69781790	      0.00000000	      0.00000000	    -50.93983243	    -14.99285961	    -11.89260006	     78.99743936	      7.23402185	     23.35821503	      9.91738284	     30.37087817	      0.00000000	      0.00000000	    -86.32915991	   -119.79547534	    -88.29350025	     71.26845971	     23.30473432	      0.00000000	      0.00000000
      6.02500000	     83.17765418	     47.03930902	     88.24601043	      0.42023016	      0.62365489	      0.70034619	     94.57286733	     -5.26792552	      2.62971683	     54.66113372	      0.95401676	      7.52058986	      0.00000000	      0.00000000	     91.33573317	    -23.99994363	     -8.23641112	     56.27014111	      0.98209923	      9.84125203	      0.00000000	      0.00000000	    -50.82363695	    -14.97354515	    -11.84875834	     78.96249028	      7.27639483	     23.34951750	      9.40135225	     33.87445978	      0.00000000	      0.00000000	    -86.29800195	   -119.79468315	    -88.28580739	     71.17996157	     28.84266224	      0.00000000	      0.00000000
      6.03000000	     83.21463276	     47.25063075	     88.23724599	      0.42040303	      0.62366961	      0.69907227	     94.63617417	     -5.27166102	      2.66543077	     55.09584253	      0.96160386	      7.70124392	      0.00000000	      0.00000000	     91.42086876	    -24.05715658	     -8.12168522	     56.68587099	      0.98935509	      9.99705890	      0.00000000	      0.00000000	    -50.79788507	    -14.95852187	    -11.80006996	     78.68653999	      7.21943146	     23.22442304	      9.84575970	     31.46206561	      0.00000000	      0.00000000	    -86.65248140	   -119.79589147	    -88.25668126	     71.31248710	     23.16597346	      0.00000000	      0.00000000
      6.03500000	     83.01190461	     47.52342215	     88.22620648	      0.42059575	      0.62404438	      0.69787465	     94.64388443	     -5.04406510	      2.93642467	     55.47482911	      0.96821842	      7.88978950	      0.00000000	      0.00000000	     91.37640030	    -24.37900425	     -8.32355726	     57.17782046	      0.99794123	     10.18708770	      0.00000000	      0.00000000	    -50.80730208	    -15.18656282	    -11.76508294	     78.72595106	      7.35076775	     23.38255034	      9.13104209	     34.68484436	      0.00000000	      0.00000000	    -86.69079186	   -119.79672458	    -88.19908826	     70.92425152	     29.09075984	      0.00000000	      0.00000000
      6.04000000	     83.18006586	     47.53417222	     88.36935473	      0.42100354	      0.62355361	      0.69632407	     94.91358496	     -5.31632118	      2.90289648	     55.92481815	      0.97607221	      8.04806123	      0.00000000	      0.00000000	     91.69577526	    -24.07084083	     -7.94214082	     57.45922314	      1.00285263	     10.23979659	      0.00000000	      0.00000000	    -50.56579820	    -14.89266756	    -11.77488624	     78.50143603	      7.32935244	     22.30094533	      9.15805911	     37.04719728	      0.00000000	      0.00000000	    -86.92645484	   -119.79611980	    -88.22557491	     70.73378931	     32.94062597	      0.00000000	      0.00000000
      6.04500000	     83.14567137	     47.80737299	     88.38355797	      0.42116659	      0.62368560	      0.69522880	     94.90009350	     -5.26921538	      3.00327801	     56.32570523	      0.98306901	      8.25256369	      0.00000000	      0.00000000	     91.68246723	    -24.15579762	     -7.86745965	     57.86713606	      1.00997205	     10.41368912	      0.00000000	      0.00000000	    -50.61478997	    -14.93060272	    -11.70895176	     78.18729253	      7.12838737	     23.47959023	      9.78685346	     32.51573963	      0.00000000	      0.00000000	    -87.07940632	   -119.79639359	    -88.19091072	     71.43832578	     23.28025800	      0.00000000	      0.00000000
      6.05000000	     83.07188476	     48.01874228	     88.40580510	      0.42139000	      0.62380226	      0.69409263	     94.93881832	     -5.19668115	      3.14358076	     56.69121766	      0.98944841	      8.41822272	      0.00000000	      0.00000000	     91.70527837	    -24.27115400	     -7.86093277	     58.23868319	      1.01645677	     10.55074873	      0.00000000	      0.00000000	    -50.59636681	    -14.98948409	    -11.66214024	     78.25629630	      7.24985978	     23.04017922	      9.21976996	     35.33053683	      0.00000000	      0.00000000	    -87.06391977	   -119.79622835	    -88.18468514	     71.24089022	     29.25898411	      0.00000000	      0.00000000
      6.05500000	     83.11502562	     48.11059337	     88.43429239	      0.42173776	      0.62373189	      0.69271930	     95.10074290	     -5.21855713	      3.22122827	     57.06267205	      0.99593151	      8.57385529	      0.00000000	      0.00000000	     91.91512335	    -24.25577865	     -7.69051589	     58.60941856	      1.02292733	     10.63541531	      0.00000000	      0.00000000	    -50.43386311	    -14.93723749	    -11.62927376	     77.87503927	      7.12030135	     23.21703159	      9.80711993	     32.61896558	      0.00000000	      0.00000000	    -87.38321957	   -119.79681251	    -88.13749808	     71.44139343	     23.75034306	      0.00000000	      0.00000000
      6.06000000	     83.11808997	     48.22818694	     88.52051586	      0.42204973	      0.62359590	      0.69144218	     95.24168985	     -5.28488590	      3.31169203	     57.44357781	      1.00257957	      8.73881046	      0.00000000	      0.00000000	     92.04899334	    -24.20189595	     -7.56837104	     58.93453325	      1.02860165	     10.73298528	      0.00000000	      0.00000000	    -50.32424050	    -14.86970113	    -11.63268883	     77.82185756	      7.17302349	     22.73789020	      9.46022614	     35.57003861	      0.00000000	      0.00000000	    -87.48259133	   -119.79693154	    -88.09270089	     71.04679062	     29.81086074	      0.00000000	      0.00000000
      6.06500000	     83.04147016	     48.44624343	     88.54766850	      0.42224863	      0.62377758	      0.69036051	     95.26161219	     -5.20444823	      3.45566218	     57.79033757	      1.00863167	      8.92410018	      0.00000000	      0.00000000	     92.06840798	    -24.34355050	     -7.59567273	     59.32142493	      1.03535418	     10.86876609	      0.00000000	      0.00000000	    -50.32456555	    -14.94850241	    -11.58204583	     77.67325542	      7.18262082	     22.56785076	      9.73237600	     32.10475989	      0.00000000	      0.00000000	    -87.60569707	   -119.79756910	    -88.06725323	     71.55162380	     23.42511811	      0.00000000	      0.00000000
      6.07000000	     82.86091693	     48.69187128	     88.60183730	      0.42239916	      0.62401022	      0.68943268	     95.24906772	     -5.08192769	      3.64771743	     58.11646994	      1.01432375	      9.03731216	      0.00000000	      0.00000000	     91.98392057	    -24.53650241	     -7.74530357	     59.66705547	      1.04138657	     11.00851163	      0.00000000	      0.00000000	    -50.37418406	    -15.11018783	    -11.59939170	     77.72430291	      7.26781691	     22.74638601	      9.19658298	     34.71167332	      0.00000000	      0.00000000	    -87.63343120	   -119.79698441	    -88.00122295	     71.14678209	     28.67778110	      0.00000000	      0.00000000
      6.07500000	     82.95317415	     48.83499014	     88.64038510	      0.42265445	      0.62381607	      0.68829846	     95.32687463	     -5.18528388	      3.64512443	     58.45892354	      1.02030069	      9.16853172	      0.00000000	      0.00000000	     92.11136941	    -24.46072926	     -7.56365490	     59.97327357	      1.04673109	     11.10171007	      0.00000000	      0.00000000	    -50.29995730	    -14.98105373	    -11.55597660	     77.45479836	      7.24228664	     22.21211789	      9.74555087	     31.48753977	      0.00000000	      0.00000000	    -87.80733685	   -119.79732877	    -87.98570306	     71.58989355	     23.14365358	      0.00000000	      0.00000000
      6.08000000	     82.98478368	     49.01123227	     88.72394879	      0.42289525	      0.62363680	      0.68728491	     95.38597465	     -5.30005550	      3.64928510	     58.82206721	      1.02663875	      9.30961144	      0.00000000	      0.00000000	     92.16251727	    -24.40182989	     -7.48181339	     60.23772798	      1.05134669	     11.17216970	      0.00000000	      0.00000000	    -50.28256855	    -14.88952553	    -11.61033215	     77.29784166	      7.14716562	     22.58547499	      9.65195193	     34.48055543	      0.00000000	      0.00000000	    -87.84769390	   -119.79713081	    -87.91167046	     71.17457537	     28.86503771	      0.00000000	      0.00000000
